<svg xmlns="http://www.w3.org/2000/svg" width="73.454" height="21.144" viewBox="0 0 73.454 21.144"><defs><style>.a{opacity:0.8;}.b{fill:#fff;}</style></defs><g transform="translate(-2.789 -7.802)"><g transform="translate(2.789 7.802)"><g transform="translate(55.172 0.033)"><g class="a"><path class="b" d="M127.469,20.02l2.776-1.6L111.963,7.867l0,3.2Z" transform="translate(-111.963 -7.867)"/></g><g class="a" transform="translate(0 8.958)"><path class="b" d="M111.967,34.543l0,3.2L130.245,27.19l-2.776-1.6Z" transform="translate(-111.963 -25.593)"/></g><g class="a"><path class="b" d="M114.734,18.446V9.472l-2.771-1.605v8.995l2.757,1.592Z" transform="translate(-111.963 -7.867)"/><path class="b" d="M117.433,28.816V28.8l-.015.008Z" transform="translate(-114.661 -18.221)"/><path class="b" d="M114.72,28.816l-2.757,1.592V39.34l2.771-1.605V28.824Z" transform="translate(-111.963 -18.229)"/></g></g><g transform="translate(0 0)"><path class="b" d="M50.511,7.8H34.351l1,2.717h5.717V28.809h3.164V10.519h7.28Z" transform="translate(-18.401 -7.802)"/><g transform="translate(0 0.029)"><rect class="b" width="0.072" transform="translate(10.333 9.084)"/><path class="b" d="M25.211,31.2l-.007-.018V31.2Z" transform="translate(-13.876 -19.396)"/><path class="b" d="M5.892,26.119V19.663h8.225v-.018l-.922-2.7h-7.3V10.577h9.667l-.6-1.64-.4-1.077H2.789V28.837H15.556l-.928-2.718Z" transform="translate(-2.789 -7.86)"/></g><g transform="translate(36.297 0)"><path class="b" d="M87.681,11.41A4.946,4.946,0,0,0,86.4,9.529a6.113,6.113,0,0,0-2.234-1.272A10.291,10.291,0,0,0,80.915,7.8h-6.3V28.809h3.192V19.679h0V16.961l0-.015V10.519h2.961a6.006,6.006,0,0,1,1.871.257,3.3,3.3,0,0,1,1.238.7,2.782,2.782,0,0,1,.7,1.016,3.348,3.348,0,0,1,.225,1.223,3.536,3.536,0,0,1-.225,1.27A2.562,2.562,0,0,1,83.865,16a3.571,3.571,0,0,1-1.285.689,6.507,6.507,0,0,1-1.962.258H78.876l.928,2.718h.9a10.257,10.257,0,0,0,3.539-.532,6.177,6.177,0,0,0,2.28-1.394,4.979,4.979,0,0,0,1.2-1.944,6.859,6.859,0,0,0,.351-2.136A6.374,6.374,0,0,0,87.681,11.41Z" transform="translate(-74.613 -7.802)"/></g></g></g></g></svg>