<svg xmlns="http://www.w3.org/2000/svg" width="195.155" height="43.896" viewBox="0 0 195.155 43.896">
  <g id="Group_1318" data-name="Group 1318" transform="translate(1464 -169)">
    <path id="Union_1" data-name="Union 1" d="M31.718,29.311a6.1,6.1,0,0,1-2.47-1.744c-1.305-1.541-1.967-3.9-1.967-7.009V9.963a3.325,3.325,0,0,1,6.643,0v4.824c0,.021,0,.042,0,.062v5.314a4.137,4.137,0,0,0,.87,2.768,2.994,2.994,0,0,0,2.372.949,3.132,3.132,0,0,0,2.451-.949,4.4,4.4,0,0,0,.843-2.779h.011V9.963A3.184,3.184,0,0,1,43.741,6.8a3.261,3.261,0,0,1,3.3,3.163v.079h0V21.364q.008.111.008.223v4.824a3.089,3.089,0,0,1-3.048,3.163,3.139,3.139,0,0,1-3.048-3.163h0v-.159h-.079A5.185,5.185,0,0,1,38.43,29.1a7.01,7.01,0,0,1-3.242.791A9.552,9.552,0,0,1,31.718,29.311Zm80.41-2.9v-.079h-.08V16.447c0-2.5-1.06-3.717-3.242-3.717a2.941,2.941,0,0,0-2.294.949,4.143,4.143,0,0,0-.87,2.768v5c0,.021,0,.043,0,.064v4.824a3.243,3.243,0,0,1-6.485,0V8.777h0a3.007,3.007,0,1,1,6.009.079v1.233A6.6,6.6,0,0,1,110.7,6.958a7.25,7.25,0,0,1,5.8,2.264c1.292,1.509,1.947,3.807,1.947,6.83V20.6a3.118,3.118,0,0,1,.159.985v4.824a3.243,3.243,0,0,1-6.484,0Zm25.7-.079v-.08h0v.159h-.079c-1.036,1.994-3.032,3-5.93,3-.152.009-.3.012-.455.012a8.979,8.979,0,0,1-3.657-.8,9.892,9.892,0,0,1-3.321-2.373,11.514,11.514,0,0,1-2.294-3.479,10.662,10.662,0,0,1-.791-4.191,10,10,0,0,1,.712-4.27,11.994,11.994,0,0,1,2.214-3.637,10.635,10.635,0,0,1,3.4-2.531,9.519,9.519,0,0,1,4.191-.87,7.9,7.9,0,0,1,3.084.554,5.831,5.831,0,0,1,2.452,1.5V8.936a3.163,3.163,0,1,1,6.326,0v17.4a2.935,2.935,0,1,1-5.851,0Zm-7.2-13.048a7.514,7.514,0,0,0-1.581,1.186,5.837,5.837,0,0,0-1.107,1.739,5.957,5.957,0,0,0-.395,2.056,6.075,6.075,0,0,0,.395,2.135l0,.006a6.56,6.56,0,0,0,1.1,1.734,6,6,0,0,0,1.581,1.186,5.188,5.188,0,0,0,1.977.4,4.046,4.046,0,0,0,1.9-.4,7.451,7.451,0,0,0,1.581-1.186,5.024,5.024,0,0,0,1.107-1.74,6.754,6.754,0,0,0,.4-2.135,5.935,5.935,0,0,0-.4-2.056,5.041,5.041,0,0,0-1.107-1.739,6,6,0,0,0-1.581-1.186,5.089,5.089,0,0,0-1.9-.395A4.282,4.282,0,0,0,130.63,13.284ZM90.619,26.332v.079H90.54c-1.036,1.994-3.032,3-5.93,3-.152.009-.3.012-.455.012a8.979,8.979,0,0,1-3.657-.8,9.892,9.892,0,0,1-3.321-2.373,11.515,11.515,0,0,1-2.293-3.479,10.652,10.652,0,0,1-.791-4.191,10,10,0,0,1,.712-4.27,11.993,11.993,0,0,1,2.214-3.637,10.624,10.624,0,0,1,3.4-2.531,9.519,9.519,0,0,1,4.191-.87,7.9,7.9,0,0,1,3.084.554,5.823,5.823,0,0,1,2.451,1.5h0V8.856a3.163,3.163,0,0,1,6.326,0V13.68c0,.021,0,.043,0,.064v7.7c0,.022,0,.044,0,.066v4.824a2.935,2.935,0,1,1-5.852,0Zm-7.2-13.048a7.513,7.513,0,0,0-1.581,1.186,5.542,5.542,0,0,0-1.5,3.8,6.075,6.075,0,0,0,.395,2.135l0,.006a6.546,6.546,0,0,0,1.1,1.734,5.961,5.961,0,0,0,1.581,1.186,5.188,5.188,0,0,0,1.977.4,4.045,4.045,0,0,0,1.9-.4,7.451,7.451,0,0,0,1.582-1.186,5.051,5.051,0,0,0,1.107-1.74,6.776,6.776,0,0,0,.4-2.135,5.948,5.948,0,0,0-.4-2.056A5.047,5.047,0,0,0,88.88,14.47,6.012,6.012,0,0,0,87.3,13.284a5.08,5.08,0,0,0-1.9-.395A4.282,4.282,0,0,0,83.423,13.284ZM49.976,26.332v-.158h0V3.874h0V3.163A3.121,3.121,0,0,1,53.135,0a3.17,3.17,0,0,1,3.159,3.163H56.3V8.783a6.2,6.2,0,0,1,2.372-1.351,8.122,8.122,0,0,1,3-.554,9.91,9.91,0,0,1,4.35.87,9.8,9.8,0,0,1,3.4,2.531A12.468,12.468,0,0,1,71.641,14a11.777,11.777,0,0,1,.791,4.349,9.683,9.683,0,0,1-.791,4.27,10.7,10.7,0,0,1-2.293,3.479,10.2,10.2,0,0,1-3.4,2.373,8.374,8.374,0,0,1-3.643.806c-.178,0-.362,0-.547-.015-2.635,0-4.48-.881-5.623-2.691a3.082,3.082,0,0,1-6.159-.234Zm9.093-13.285a4.86,4.86,0,0,0-1.581,1.186,4.783,4.783,0,0,0-1.028,1.739,5.957,5.957,0,0,0-.395,2.056,6.779,6.779,0,0,0,.395,2.135A6.282,6.282,0,0,0,57.487,21.9a5.954,5.954,0,0,0,1.581,1.186,4.353,4.353,0,0,0,3.953,0A4.843,4.843,0,0,0,64.6,21.9a6.272,6.272,0,0,0,1.028-1.739,6.776,6.776,0,0,0,.4-2.135,5.951,5.951,0,0,0-.4-2.056A6.293,6.293,0,0,0,64.6,14.233a4.863,4.863,0,0,0-1.582-1.186,4.264,4.264,0,0,0-1.976-.475A4.047,4.047,0,0,0,59.068,13.047Zm-41.2,13.838V18.108H6.642v8.778c0,1.423-1.5,2.609-3.321,2.609S0,28.309,0,26.885V2.61C0,1.186,1.5,0,3.321,0S6.642,1.186,6.642,2.61v8.856H17.871V2.61A3.107,3.107,0,0,1,21.192,0c1.818,0,3.321,1.186,3.321,2.61V26.885c0,1.423-1.5,2.609-3.321,2.609S17.871,28.309,17.871,26.885Z" transform="translate(-1412.523 175.553)" fill="#fff"/>
    <path id="Subtraction_3" data-name="Subtraction 3" d="M20.075,43.9a8.222,8.222,0,0,1-4.023-1.127l-.107-.061c-3.931-2.236-7.995-4.547-11.991-6.9A7.6,7.6,0,0,1,0,28.852V15.094A7.6,7.6,0,0,1,3.954,8.135C8.419,5.508,12.428,3.206,16.21,1.1A8.277,8.277,0,0,1,20.177,0a7.7,7.7,0,0,1,3.862,1.1c3,1.67,6.008,3.417,8.921,5.107l.009.005c1.088.631,2.213,1.283,3.326,1.925A7.9,7.9,0,0,1,39.28,11.09a8.319,8.319,0,0,1,.969,4.082c-.08,2.135-.08,4.466-.08,6.721v6.8a7.766,7.766,0,0,1-3.953,7.038c-2.817,1.657-5.694,3.31-8.477,4.909l-.016.009c-1.2.692-2.45,1.408-3.684,2.12A7.9,7.9,0,0,1,20.075,43.9Zm.05-38.747a6.027,6.027,0,0,0-2.886.771C14.094,7.65,10.9,9.486,7.749,11.377A5.8,5.8,0,0,0,4.824,16.6V26.954a5.837,5.837,0,0,0,3.084,5.377c3.012,1.823,6.144,3.589,9.173,5.3a5.708,5.708,0,0,0,5.93,0c3.011-1.7,6.125-3.454,9.252-5.3a5.838,5.838,0,0,0,3.084-5.377V16.6a5.905,5.905,0,0,0-3.005-5.3l-.052-.03c-3.015-1.778-6.133-3.616-9.279-5.346A6.024,6.024,0,0,0,20.124,5.15Z" transform="translate(-1464 169)" fill="#fff"/>
    <path id="Subtraction_2" data-name="Subtraction 2" d="M11.559,25.334a4.96,4.96,0,0,1-2.307-.623c-.39-.229-.8-.47-1.265-.738V14.739H15.1v9.21l-1.23.7-.115.065A4.362,4.362,0,0,1,11.559,25.334Zm-8.4-4.148h0l-.868-.507a4.527,4.527,0,0,1-1.71-1.691A4.7,4.7,0,0,1,0,16.645V8.659A4.327,4.327,0,0,1,2.214,4.705c.31-.186.629-.376.949-.565V21.185Zm16.764,0h0V4.171c.264.16.573.35.87.534a4.523,4.523,0,0,1,1.71,1.69,4.7,4.7,0,0,1,.583,2.343v7.828A4.56,4.56,0,0,1,20.8,20.678l-.868.507ZM15.1,9.836H7.986V1.379C8.471,1.11,8.949.845,9.41.593a4.283,4.283,0,0,1,4.349,0l1.344.763v8.48Z" transform="translate(-1455.46 178.202)" fill="#fff"/>
  </g>
</svg>
